<svg xmlns="http://www.w3.org/2000/svg" viewBox="0 0 406.6 170.3"><defs><style>.cls-1{fill:#fff;}.cls-2{fill:#cc2027;}.cls-3{fill:#231f20;}</style></defs><title>MattSucksTu</title><g id="Layer_2" data-name="Layer 2"><g id="Layer_1-2" data-name="Layer 1"><path class="cls-1" d="M173,25.79h0v16.4h17.17v94.56h16.46V42.18h17.94c.27,0,.35-1.94.34-4.49,0-4.85-.34-11.9-.34-11.9Z"/><path class="cls-1" d="M313.65,53.12c-7,0-14.85,9.39-14.85,9.39v-36H284v111h14.85v-8.59c3.1,3.87,8.58,9.36,17.94,9.36s11-15.62,11-15.62V68C327.72,57.8,320.69,53.12,313.65,53.12Zm-.77,64h0v.07s0,7-6.26,7c0,0-4.71,0-7-3.1V70.25s3.1-3.13,7-3.13,6.26,3.13,6.26,8.59Z"/><path class="cls-1" d="M255.82,117.11v.07c0,1.55-5.49,7-9.36,7s-3.94-3.1-3.94-3.1V54.7H227.68v68c0,10.13,3.16,15.62,11.75,15.62s16.39-10.2,16.39-10.2v9.42h14.85V54.7H255.82Z"/><path class="cls-1" d="M369.87,108.6v6.26s0,9.36-6.26,9.36-8.58-4.71-8.58-9.36h0V98.46h29.69V75.68c0-1.54-.06-21.78-21.11-21.78-18.72,0-20.27,9.39-21.88,14.07a31.93,31.93,0,0,0-1.55,7.81v39.08s0,.14,0,.38c0,3,1.08,23,24.21,23,0,0,17.23-1.55,19.56-15.62a74.2,74.2,0,0,0,1-10.7,19.48,19.48,0,0,0-.19-3.37ZM355,75.78c0-1.17.87-5.42,4-7.47a6.78,6.78,0,0,1,3.94-1.19c6.26,0,7,8.59,7,8.59V85.87h-.1v.07H355Z"/><path class="cls-2" d="M306.62,67.12c-3.94,0-7,3.13-7,3.13v50.86c2.32,3.1,7,3.1,7,3.1,6.26,0,6.26-7,6.26-7v-.07h0V75.71C312.88,70.25,310.49,67.12,306.62,67.12Z"/><path class="cls-2" d="M380,3.13C362.06,0,341.73.77,276.93,0c-43.76,0-65.74.77-68.74.77C180,2.36,160.52-1.55,153.48,28.92,150.35,46.09,148.8,68,148.8,84.75c1.55,36.37-1.55,80.07,33.56,83.23,18,1.58,64.87,2.32,95.75,2.32,42.15,0,87.88-.77,103.5-3.94,6.86-1.67,12.88-8.74,14.85-11.68,9.15-12.26,9.31-30.73,10.13-70.31C405,50.77,407.37,7,380,3.13ZM224.58,42.18H206.64v94.56H190.18V42.18H173V25.79h51.57s.33,7,.34,11.9C224.93,40.24,224.85,42.18,224.58,42.18Zm46.09,95.26v.07H255.82v-9.42s-7.81,10.2-16.39,10.2-11.75-5.49-11.75-15.62v-68h14.85v66.42s0,3.1,3.94,3.1,9.36-5.49,9.36-7V54.7h14.85Zm57.06-14.85v.07s-1.61,15.62-11,15.62-14.85-5.49-17.94-9.36v8.59H284v-111h14.85v36s7.81-9.39,14.85-9.39S327.72,57.8,327.72,68Zm56.22.07c-2.32,14.07-19.56,15.62-19.56,15.62-23.13,0-24.18-20.07-24.21-23,0-.24,0-.38,0-.38V75.78A31.93,31.93,0,0,1,341.73,68c1.61-4.68,3.16-14.07,21.88-14.07,21,0,21.13,20.24,21.11,21.78V98.46H355v16.39h0c0,4.65,2.33,9.36,8.58,9.36s6.26-9.36,6.26-9.36V108.6h14.85a19.48,19.48,0,0,1,.19,3.37A74.2,74.2,0,0,1,383.94,122.67Z"/><path class="cls-2" d="M369.87,85.87h.1V75.71s-.77-8.59-7-8.59A6.78,6.78,0,0,0,359,68.31c-3.09,2-4,6.3-4,7.47V85.94h14.85Z"/><path class="cls-3" d="M68.85,40.6H41v94.35H27.74V40.6H0V29.19H68.85Z"/><path class="cls-3" d="M115.31,128q-6.39,8.35-18.67,8.35Q86,136.4,80.52,129T75,107.56V56.36H87.78v50.26q0,18.38,11,18.38,11.69,0,16.12-10.46V56.36H127.8v78.59H115.6ZM108.12,23.38h16.27L104.92,44.74l-10.82,0Z"/></g></g></svg>