<?xml version="1.0" encoding="utf-8"?>
<!-- Generator: Adobe Illustrator 20.1.0, SVG Export Plug-In . SVG Version: 6.00 Build 0)  -->
<svg version="1.1" id="Layer_1" xmlns="http://www.w3.org/2000/svg" xmlns:xlink="http://www.w3.org/1999/xlink" x="0px" y="0px"
	 viewBox="0 0 406.6 170.3" style="enable-background:new 0 0 406.6 170.3;" xml:space="preserve">
<style type="text/css">
	.st0{fill:#F1F1F1;}
	.st1{fill:#CC181E;}
</style>
<title>Artboard 1</title>
<g id="Layer_2">
	<g id="Layer_1-2">
		<path class="st0" d="M173,25.8L173,25.8v16.4h17.2v94.6h16.5V42.2h17.9c0.3,0,0.4-1.9,0.3-4.5c0-4.8-0.3-11.9-0.3-11.9L173,25.8z"
			/>
		<path class="st0" d="M313.6,53.1c-7,0-14.9,9.4-14.9,9.4v-36H284v111h14.9v-8.6c3.1,3.9,8.6,9.4,17.9,9.4s11-15.6,11-15.6V68
			C327.7,57.8,320.7,53.1,313.6,53.1z M312.9,117.1L312.9,117.1L312.9,117.1c0,0.1,0,7.1-6.3,7.1c0,0-4.7,0-7-3.1V70.2
			c0,0,3.1-3.1,7-3.1s6.3,3.1,6.3,8.6V117.1z"/>
		<path class="st0" d="M255.8,117.1L255.8,117.1c0,1.6-5.5,7.1-9.4,7.1s-3.9-3.1-3.9-3.1V54.7h-14.8v68c0,10.1,3.2,15.6,11.8,15.6
			s16.4-10.2,16.4-10.2v9.4h14.8V54.7h-14.8v62.4H255.8z"/>
		<path class="st0" d="M369.9,108.6v6.3c0,0,0,9.4-6.3,9.4s-8.6-4.7-8.6-9.4l0,0V98.5h29.7V75.7c0-1.5-0.1-21.8-21.1-21.8
			c-18.7,0-20.3,9.4-21.9,14.1c-0.8,2.5-1.4,5.2-1.5,7.8v39.5c0,3,1.1,23,24.2,23c0,0,17.2-1.6,19.6-15.6c0.6-3.5,0.9-7.1,1-10.7
			c0-1.1,0-2.3-0.2-3.4L369.9,108.6z M355,75.8c0-1.2,0.9-5.4,4-7.5c1.2-0.8,2.5-1.2,3.9-1.2c6.3,0,7,8.6,7,8.6v10.2h-0.1V86H355
			V75.8z"/>
		<path class="st1" d="M306.6,67.1c-3.9,0-7,3.1-7,3.1v50.9c2.3,3.1,7,3.1,7,3.1c6.3,0,6.3-7,6.3-7v-0.1l0,0V75.7
			C312.9,70.2,310.5,67.1,306.6,67.1z"/>
		<path class="st1" d="M380,3.1C362.1,0,341.7,0.8,276.9,0c-43.8,0-65.7,0.8-68.7,0.8c-28.2,1.6-47.7-2.3-54.7,28.1
			c-3.1,17.2-4.7,39.1-4.7,55.8c1.6,36.4-1.6,80.1,33.6,83.2c18,1.6,64.9,2.3,95.7,2.3c42.1,0,87.9-0.8,103.5-3.9
			c6.9-1.7,12.9-8.7,14.9-11.7c9.1-12.3,9.3-30.7,10.1-70.3C405,50.8,407.4,7,380,3.1z M224.6,42.2h-17.9v94.6h-16.5V42.2H173V25.8
			h51.6c0,0,0.3,7,0.3,11.9C224.9,40.2,224.9,42.2,224.6,42.2z M270.7,137.4L270.7,137.4l-14.9,0.1v-9.4c0,0-7.8,10.2-16.4,10.2
			s-11.8-5.5-11.8-15.6v-68h14.9v66.4c0,0,0,3.1,3.9,3.1s9.4-5.5,9.4-7V54.7h14.9V137.4z M327.7,122.6L327.7,122.6
			c0,0.1-1.6,15.7-11,15.7s-14.9-5.5-17.9-9.4v8.6H284v-111h14.9v36c0,0,7.8-9.4,14.9-9.4s14,4.7,14,14.9L327.7,122.6z M384,122.7
			c-2.3,14.1-19.6,15.6-19.6,15.6c-23.1,0-24.2-20.1-24.2-23V75.8c0.2-2.6,0.7-5.3,1.5-7.8c1.6-4.7,3.2-14.1,21.9-14.1
			c21,0,21.1,20.2,21.1,21.8v22.8H355v16.4l0,0c0,4.7,2.3,9.4,8.6,9.4s6.3-9.4,6.3-9.4v-6.2h14.9c0.2,1.1,0.2,2.2,0.2,3.4
			C384.8,115.6,384.5,119.1,384,122.7L384,122.7z"/>
		<path class="st1" d="M369.9,85.9h0.1V75.7c0,0-0.8-8.6-7-8.6c-1.4,0-2.8,0.4-4,1.2c-3.1,2-4,6.3-4,7.5V86L369.9,85.9L369.9,85.9z"
			/>
		<path class="st0" d="M68.8,40.6H41v94.3H27.7V40.6H0V29.2h68.8V40.6z"/>
		<path class="st0" d="M115.3,128c-4.3,5.6-10.5,8.4-18.7,8.4c-7.1,0-12.5-2.4-16.1-7.4c-3.7-4.9-5.5-12.1-5.5-21.4V56.4h12.8v50.3
			c0,12.3,3.7,18.4,11,18.4c7.8,0,13.2-3.5,16.1-10.5V56.4h12.9V135h-12.2L115.3,128z M108.1,23.4h16.3l-19.5,21.4H94.1L108.1,23.4z
			"/>
	</g>
</g>
</svg>
